name rise30.9205peak61.366fall85.3838.mot
datacolumns 19
datarows 12
range 12.89495300000000 12.91328100000000
endheader
time	ground_force1_vx	ground_force1_vy	ground_force1_vz	ground_force1_px	ground_force1_py	ground_force1_pz	ground_force2_vx	ground_force2_vy	ground_force2_vz	ground_force2_px	ground_force2_py	ground_force2_pz	ground_torque1_x	ground_torque1_y	ground_torque1_z	ground_torque2_x	ground_torque2_y	ground_torque2_z	
12.89495300000000	-2.05266200000000	686.35569099999998	40.03574000000000	0.21030600000000	0.00000000000000	0.11517400000000	0.00000000000000	0.00000000000000	0.00000000000000	0.00000000000000	0.00000000000000	0.00000000000000	0.00000000000000	16.88785400000000	0.00000000000000	0.00000000000000	0.00000000000000	0.00000000000000	
12.89662700000000	-2.49900600000000	687.26459599999998	40.08183500000000	0.20931800000000	0.00000000000000	0.11519000000000	0.00000000000000	0.00000000000000	0.00000000000000	0.00000000000000	0.00000000000000	0.00000000000000	0.00000000000000	16.94969100000000	0.00000000000000	0.00000000000000	0.00000000000000	0.00000000000000	
12.89828200000000	-2.95413400000000	688.20389399999999	40.12901000000000	0.20831000000000	0.00000000000000	0.11520800000000	0.00000000000000	0.00000000000000	0.00000000000000	0.00000000000000	0.00000000000000	0.00000000000000	0.00000000000000	17.01316400000000	0.00000000000000	0.00000000000000	0.00000000000000	0.00000000000000	
12.89995000000000	-3.41826300000000	689.17266199999995	40.17733400000000	0.20728100000000	0.00000000000000	0.11522700000000	0.00000000000000	0.00000000000000	0.00000000000000	0.00000000000000	0.00000000000000	0.00000000000000	0.00000000000000	17.07834600000000	0.00000000000000	0.00000000000000	0.00000000000000	0.00000000000000	
12.90162300000000	-3.89158200000000	690.17000499999995	40.22688100000000	0.20623200000000	0.00000000000000	0.11524700000000	0.00000000000000	0.00000000000000	0.00000000000000	0.00000000000000	0.00000000000000	0.00000000000000	0.00000000000000	17.14531300000000	0.00000000000000	0.00000000000000	0.00000000000000	0.00000000000000	
12.90329000000000	-4.37426200000000	691.19506600000000	40.27773600000000	0.20516400000000	0.00000000000000	0.11527000000000	0.00000000000000	0.00000000000000	0.00000000000000	0.00000000000000	0.00000000000000	0.00000000000000	0.00000000000000	17.21414800000000	0.00000000000000	0.00000000000000	0.00000000000000	0.00000000000000	
12.90495200000000	-4.86645100000000	692.24702400000001	40.32998900000000	0.20407800000000	0.00000000000000	0.11529400000000	0.00000000000000	0.00000000000000	0.00000000000000	0.00000000000000	0.00000000000000	0.00000000000000	0.00000000000000	17.28493700000000	0.00000000000000	0.00000000000000	0.00000000000000	0.00000000000000	
12.90662000000000	-5.36827600000000	693.32509300000004	40.38373600000000	0.20297400000000	0.00000000000000	0.11532000000000	0.00000000000000	0.00000000000000	0.00000000000000	0.00000000000000	0.00000000000000	0.00000000000000	0.00000000000000	17.35776600000000	0.00000000000000	0.00000000000000	0.00000000000000	0.00000000000000	
12.90828600000000	-5.87984300000000	694.42852800000003	40.43908000000000	0.20185400000000	0.00000000000000	0.11534700000000	0.00000000000000	0.00000000000000	0.00000000000000	0.00000000000000	0.00000000000000	0.00000000000000	0.00000000000000	17.43272700000000	0.00000000000000	0.00000000000000	0.00000000000000	0.00000000000000	
12.90995100000000	-6.40123800000000	695.55662500000005	40.49612800000000	0.20071900000000	0.00000000000000	0.11537600000000	0.00000000000000	0.00000000000000	0.00000000000000	0.00000000000000	0.00000000000000	0.00000000000000	0.00000000000000	17.50990900000000	0.00000000000000	0.00000000000000	0.00000000000000	0.00000000000000	
12.91163900000000	-6.93252500000000	696.70871699999998	40.55498900000000	0.19956900000000	0.00000000000000	0.11540600000000	0.00000000000000	0.00000000000000	0.00000000000000	0.00000000000000	0.00000000000000	0.00000000000000	0.00000000000000	17.58940400000000	0.00000000000000	0.00000000000000	0.00000000000000	0.00000000000000	
12.91328100000000	-7.47375200000000	697.88418400000000	40.61577900000000	0.19840800000000	0.00000000000000	0.11543700000000	0.00000000000000	0.00000000000000	0.00000000000000	0.00000000000000	0.00000000000000	0.00000000000000	0.00000000000000	17.67130200000000	0.00000000000000	0.00000000000000	0.00000000000000	0.00000000000000	
